<?xml version="1.0" encoding="utf-8"?>
<!-- Generator: Adobe Illustrator 25.2.0, SVG Export Plug-In . SVG Version: 6.00 Build 0)  -->
<svg version="1.1" id="Capa_1" xmlns="http://www.w3.org/2000/svg" xmlns:xlink="http://www.w3.org/1999/xlink" x="0px" y="0px"
	 viewBox="0 0 587.9 587.9" style="enable-background:new 0 0 587.9 587.9;" xml:space="preserve">
<style type="text/css">
	.st0{fill:#AAF683;}
</style>
<g>
	<g>
		<g>
			<path class="st0" d="M86.5,501.5c26.9,26.9,58.3,48.1,93.3,62.9c36.2,15.3,74.6,23.1,114.2,23.1c39.6,0,78-7.8,114.2-23.1
				c34.9-14.8,66.3-35.9,93.3-62.9c26.9-26.9,48.1-58.3,62.9-93.3c15.3-36.2,23.1-74.6,23.1-114.2c0-39.6-7.8-78-23.1-114.2
				c-14.8-34.9-35.9-66.3-62.9-93.3c-26.9-26.9-58.3-48.1-93.3-62.9C372,8.3,333.6,0.5,294,0.5c-39.6,0-78,7.8-114.2,23.1
				c-34.9,14.8-66.3,35.9-93.3,62.9s-48.1,58.3-62.9,93.3C8.3,215.9,0.5,254.4,0.5,294c0,39.6,7.8,78,23.1,114.2
				C38.4,443.1,59.5,474.5,86.5,501.5z M294,43.3c138.4,0,250.6,112.2,250.6,250.6c0,138.4-112.2,250.6-250.6,250.6
				S43.3,432.4,43.3,294C43.3,155.5,155.5,43.3,294,43.3z"/>
			<path class="st0" d="M294,587.9c-39.7,0-78.2-7.8-114.4-23.1c-35-14.8-66.4-36-93.4-63c-27-27-48.2-58.4-63-93.4
				C7.8,372.1,0,333.6,0,294c0-39.7,7.8-78.2,23.1-114.4c14.8-35,36-66.4,63-93.4s58.4-48.2,93.4-63C215.8,7.8,254.3,0,294,0
				c39.7,0,78.2,7.8,114.4,23.1c35,14.8,66.4,36,93.4,63c27,27,48.2,58.4,63,93.4c15.3,36.3,23.1,74.8,23.1,114.4
				c0,39.7-7.8,78.2-23.1,114.4c-14.8,35-36,66.4-63,93.4c-27,27-58.4,48.2-93.4,63C372.1,580.1,333.6,587.9,294,587.9z M294,1
				c-39.5,0-77.9,7.8-114,23C145,38.8,113.7,59.9,86.8,86.8c-26.9,26.9-48,58.2-62.8,93.1C8.8,216.1,1,254.4,1,294
				c0,39.5,7.8,77.9,23,114c14.8,34.9,35.9,66.2,62.8,93.1c26.9,26.9,58.2,48,93.1,62.8c36.1,15.3,74.5,23,114,23s77.9-7.8,114-23
				c34.9-14.8,66.2-35.9,93.1-62.8c26.9-26.9,48-58.2,62.8-93.1c15.3-36.1,23-74.5,23-114c0-39.5-7.8-77.9-23-114
				c-14.8-34.9-35.9-66.2-62.8-93.1c-26.9-26.9-58.2-48-93.1-62.8C371.9,8.8,333.5,1,294,1z M294,545.1
				c-67.1,0-130.1-26.1-177.6-73.5C69,424.1,42.8,361,42.8,294S69,163.8,116.4,116.4C163.8,69,226.9,42.8,294,42.8
				S424.1,69,471.5,116.4c47.4,47.4,73.6,110.5,73.6,177.6s-26.1,130.1-73.5,177.6C424.1,518.9,361,545.1,294,545.1z M294,43.8
				c-66.8,0-129.6,26-176.9,73.3C69.9,164.3,43.8,227.1,43.8,294s26,129.6,73.3,176.9c47.2,47.2,110.1,73.3,176.9,73.3
				s129.6-26,176.9-73.3c47.2-47.2,73.3-110,73.3-176.9c0-66.8-26-129.6-73.3-176.9C423.6,69.9,360.8,43.8,294,43.8z"/>
		</g>
		<g>
			<path class="st0" d="M229,400.8c4,4,9.5,6.3,15.1,6.3c5.7,0,11.1-2.3,15.1-6.3l183.4-183.4c8.4-8.4,8.4-21.9,0-30.3
				s-21.9-8.4-30.3,0L244.1,355.4l-68.6-68.6c-8.4-8.4-21.9-8.4-30.3,0c-8.4,8.4-8.4,21.9,0,30.3L229,400.8z"/>
			<path class="st0" d="M244.1,407.6c-5.9,0-11.4-2.3-15.5-6.4l-83.8-83.8c-8.5-8.5-8.5-22.5,0-31c4.1-4.1,9.6-6.4,15.5-6.4
				s11.4,2.3,15.5,6.4l68.3,68.3L412,186.8c4.1-4.1,9.6-6.4,15.5-6.4c5.9,0,11.4,2.3,15.5,6.4s6.4,9.6,6.4,15.5s-2.3,11.4-6.4,15.5
				L259.6,401.1C255.5,405.3,250,407.6,244.1,407.6z M160.4,281c-5.6,0-10.8,2.2-14.8,6.1c-8.2,8.2-8.2,21.4,0,29.6l83.8,83.8
				c4,4,9.2,6.1,14.8,6.1c5.6,0,10.8-2.2,14.8-6.1l183.4-183.4c4-4,6.1-9.2,6.1-14.8s-2.2-10.8-6.1-14.8c-4-4-9.2-6.1-14.8-6.1
				s-10.8,2.2-14.8,6.1L244.1,356.1l-69-69C171.2,283.2,166,281,160.4,281z"/>
		</g>
	</g>
</g>
</svg>
